STARTFONT 2.1
COMMENT @(#)saxmedium.bdf       1.1 94/05/09
FONT -Soliton-APL-Medium-R-Normal-saxmedium-16-160-72-72-C-80-SAX8859-1
SIZE 16 72 72
FONTBOUNDINGBOX 8 16 0 -5
STARTPROPERTIES 21
FONTNAME_REGISTRY ""
FOUNDRY "Soliton"
FAMILY_NAME "APL"
WEIGHT_NAME "Medium"
SLANT "R"
SETWIDTH_NAME "Normal"
ADD_STYLE_NAME "saxmedium"
PIXEL_SIZE 16
POINT_SIZE 160
RESOLUTION_X 72
RESOLUTION_Y 72
SPACING "C"
AVERAGE_WIDTH 80
CHARSET_REGISTRY "SAX8859"
CHARSET_ENCODING "1"
COPYRIGHT "Copyright (c) 1993, 1995 Soliton Associates Ltd."
FONT "-Soliton-APL-Medium-R-Normal-saxmedium-16-160-72-72-C-80-SAX8859-1"
WEIGHT 10
FONT_ASCENT 11
FONT_DESCENT 5
DEFAULT_CHAR 255
ENDPROPERTIES
CHARS 256
STARTCHAR <unknown>
ENCODING 0
SWIDTH 42 0
DWIDTH 8 0
BBX 0 0 8 11
BITMAP
ENDCHAR
STARTCHAR <unknown>
ENCODING 1
SWIDTH 42 0
DWIDTH 8 0
BBX 0 0 8 11
BITMAP
ENDCHAR
STARTCHAR <unknown>
ENCODING 2
SWIDTH 42 0
DWIDTH 8 0
BBX 0 0 8 11
BITMAP
ENDCHAR
STARTCHAR <unknown>
ENCODING 3
SWIDTH 42 0
DWIDTH 8 0
BBX 0 0 8 11
BITMAP
ENDCHAR
STARTCHAR <unknown>
ENCODING 4
SWIDTH 42 0
DWIDTH 8 0
BBX 0 0 8 11
BITMAP
ENDCHAR
STARTCHAR <unknown>
ENCODING 5
SWIDTH 42 0
DWIDTH 8 0
BBX 0 0 8 11
BITMAP
ENDCHAR
STARTCHAR <unknown>
ENCODING 6
SWIDTH 42 0
DWIDTH 8 0
BBX 0 0 8 11
BITMAP
ENDCHAR
STARTCHAR <unknown>
ENCODING 7
SWIDTH 42 0
DWIDTH 8 0
BBX 0 0 8 11
BITMAP
ENDCHAR
STARTCHAR <unknown>
ENCODING 8
SWIDTH 42 0
DWIDTH 8 0
BBX 0 0 8 11
BITMAP
ENDCHAR
STARTCHAR <unknown>
ENCODING 9
SWIDTH 42 0
DWIDTH 8 0
BBX 0 0 8 11
BITMAP
ENDCHAR
STARTCHAR <unknown>
ENCODING 10
SWIDTH 42 0
DWIDTH 8 0
BBX 0 0 8 11
BITMAP
ENDCHAR
STARTCHAR <unknown>
ENCODING 11
SWIDTH 42 0
DWIDTH 8 0
BBX 0 0 8 11
BITMAP
ENDCHAR
STARTCHAR <unknown>
ENCODING 12
SWIDTH 42 0
DWIDTH 8 0
BBX 0 0 8 11
BITMAP
ENDCHAR
STARTCHAR <unknown>
ENCODING 13
SWIDTH 42 0
DWIDTH 8 0
BBX 0 0 8 11
BITMAP
ENDCHAR
STARTCHAR <unknown>
ENCODING 14
SWIDTH 42 0
DWIDTH 8 0
BBX 0 0 8 11
BITMAP
ENDCHAR
STARTCHAR <unknown>
ENCODING 15
SWIDTH 42 0
DWIDTH 8 0
BBX 0 0 8 11
BITMAP
ENDCHAR
STARTCHAR <unknown>
ENCODING 16
SWIDTH 42 0
DWIDTH 8 0
BBX 5 9 3 -5
BITMAP
F8
80
80
80
80
80
80
80
80
ENDCHAR
STARTCHAR <unknown>
ENCODING 17
SWIDTH 42 0
DWIDTH 8 0
BBX 8 9 0 -5
BITMAP
FF
10
10
10
10
10
10
10
10
ENDCHAR
STARTCHAR <unknown>
ENCODING 18
SWIDTH 42 0
DWIDTH 8 0
BBX 4 9 0 -5
BITMAP
F0
10
10
10
10
10
10
10
10
ENDCHAR
STARTCHAR <unknown>
ENCODING 19
SWIDTH 42 0
DWIDTH 8 0
BBX 5 16 3 -5
BITMAP
80
80
80
80
80
80
80
F8
80
80
80
80
80
80
80
80
ENDCHAR
STARTCHAR <unknown>
ENCODING 20
SWIDTH 42 0
DWIDTH 8 0
BBX 8 16 0 -5
BITMAP
10
10
10
10
10
10
10
FF
10
10
10
10
10
10
10
10
ENDCHAR
STARTCHAR <unknown>
ENCODING 21
SWIDTH 42 0
DWIDTH 8 0
BBX 4 16 0 -5
BITMAP
10
10
10
10
10
10
10
F0
10
10
10
10
10
10
10
10
ENDCHAR
STARTCHAR <unknown>
ENCODING 22
SWIDTH 42 0
DWIDTH 8 0
BBX 5 8 3 3
BITMAP
80
80
80
80
80
80
80
F8
ENDCHAR
STARTCHAR <unknown>
ENCODING 23
SWIDTH 42 0
DWIDTH 8 0
BBX 8 8 0 3
BITMAP
10
10
10
10
10
10
10
FF
ENDCHAR
STARTCHAR <unknown>
ENCODING 24
SWIDTH 42 0
DWIDTH 8 0
BBX 4 8 0 3
BITMAP
10
10
10
10
10
10
10
F0
ENDCHAR
STARTCHAR <unknown>
ENCODING 25
SWIDTH 42 0
DWIDTH 8 0
BBX 1 16 3 -5
BITMAP
80
80
80
80
80
80
80
80
80
80
80
80
80
80
80
80
ENDCHAR
STARTCHAR <unknown>
ENCODING 26
SWIDTH 42 0
DWIDTH 8 0
BBX 8 1 0 3
BITMAP
FF
ENDCHAR
STARTCHAR <unknown>
ENCODING 27
SWIDTH 42 0
DWIDTH 8 0
BBX 0 0 8 11
BITMAP
ENDCHAR
STARTCHAR <unknown>
ENCODING 28
SWIDTH 42 0
DWIDTH 8 0
BBX 0 0 8 11
BITMAP
ENDCHAR
STARTCHAR <unknown>
ENCODING 29
SWIDTH 42 0
DWIDTH 8 0
BBX 0 0 8 11
BITMAP
ENDCHAR
STARTCHAR <unknown>
ENCODING 30
SWIDTH 42 0
DWIDTH 8 0
BBX 0 0 8 11
BITMAP
ENDCHAR
STARTCHAR <unknown>
ENCODING 31
SWIDTH 42 0
DWIDTH 8 0
BBX 0 0 8 11
BITMAP
ENDCHAR
STARTCHAR <unknown>
ENCODING 32
SWIDTH 42 0
DWIDTH 8 0
BBX 0 0 8 11
BITMAP
ENDCHAR
STARTCHAR <unknown>
ENCODING 33
SWIDTH 42 0
DWIDTH 8 0
BBX 1 10 4 -1
BITMAP
80
80
80
80
80
80
00
00
80
80
ENDCHAR
STARTCHAR <unknown>
ENCODING 34
SWIDTH 42 0
DWIDTH 8 0
BBX 4 4 2 5
BITMAP
90
90
90
90
ENDCHAR
STARTCHAR <unknown>
ENCODING 35
SWIDTH 42 0
DWIDTH 8 0
BBX 6 10 1 -1
BITMAP
48
48
48
FC
48
48
FC
48
48
48
ENDCHAR
STARTCHAR <unknown>
ENCODING 36
SWIDTH 42 0
DWIDTH 8 0
BBX 5 12 2 -2
BITMAP
20
70
A8
A8
A0
60
30
28
A8
A8
70
20
ENDCHAR
STARTCHAR <unknown>
ENCODING 37
SWIDTH 42 0
DWIDTH 8 0
BBX 7 11 1 -2
BITMAP
60
90
92
94
68
10
2C
52
92
12
0C
ENDCHAR
STARTCHAR <unknown>
ENCODING 38
SWIDTH 42 0
DWIDTH 8 0
BBX 7 10 1 -1
BITMAP
30
48
48
30
20
52
8C
88
98
66
ENDCHAR
STARTCHAR <unknown>
ENCODING 39
SWIDTH 42 0
DWIDTH 8 0
BBX 1 4 4 5
BITMAP
80
80
80
80
ENDCHAR
STARTCHAR <unknown>
ENCODING 40
SWIDTH 42 0
DWIDTH 8 0
BBX 4 13 2 -3
BITMAP
10
20
40
40
80
80
80
80
80
40
40
20
10
ENDCHAR
STARTCHAR <unknown>
ENCODING 41
SWIDTH 42 0
DWIDTH 8 0
BBX 4 13 2 -3
BITMAP
80
40
20
20
10
10
10
10
10
20
20
40
80
ENDCHAR
STARTCHAR <unknown>
ENCODING 42
SWIDTH 42 0
DWIDTH 8 0
BBX 7 7 1 1
BITMAP
10
10
D6
7C
38
6C
44
ENDCHAR
STARTCHAR <unknown>
ENCODING 43
SWIDTH 42 0
DWIDTH 8 0
BBX 7 7 1 0
BITMAP
10
10
10
FE
10
10
10
ENDCHAR
STARTCHAR <unknown>
ENCODING 44
SWIDTH 42 0
DWIDTH 8 0
BBX 3 5 2 -4
BITMAP
60
60
20
40
80
ENDCHAR
STARTCHAR <unknown>
ENCODING 45
SWIDTH 42 0
DWIDTH 8 0
BBX 6 1 1 3
BITMAP
FC
ENDCHAR
STARTCHAR <unknown>
ENCODING 46
SWIDTH 42 0
DWIDTH 8 0
BBX 2 2 3 -1
BITMAP
C0
C0
ENDCHAR
STARTCHAR <unknown>
ENCODING 47
SWIDTH 42 0
DWIDTH 8 0
BBX 7 12 1 -2
BITMAP
02
04
04
08
08
10
10
20
20
40
40
80
ENDCHAR
STARTCHAR <unknown>
ENCODING 48
SWIDTH 42 0
DWIDTH 8 0
BBX 5 10 2 -1
BITMAP
70
88
88
88
88
88
88
88
88
70
ENDCHAR
STARTCHAR <unknown>
ENCODING 49
SWIDTH 42 0
DWIDTH 8 0
BBX 5 10 2 -1
BITMAP
20
60
A0
20
20
20
20
20
20
F8
ENDCHAR
STARTCHAR <unknown>
ENCODING 50
SWIDTH 42 0
DWIDTH 8 0
BBX 6 10 1 -1
BITMAP
78
84
84
04
08
10
20
40
80
FC
ENDCHAR
STARTCHAR <unknown>
ENCODING 51
SWIDTH 42 0
DWIDTH 8 0
BBX 6 10 1 -1
BITMAP
78
84
84
04
38
04
04
84
84
78
ENDCHAR
STARTCHAR <unknown>
ENCODING 52
SWIDTH 42 0
DWIDTH 8 0
BBX 6 10 1 -1
BITMAP
08
18
28
28
48
88
FC
08
08
08
ENDCHAR
STARTCHAR <unknown>
ENCODING 53
SWIDTH 42 0
DWIDTH 8 0
BBX 6 10 1 -1
BITMAP
FC
80
80
80
F8
04
04
84
84
78
ENDCHAR
STARTCHAR <unknown>
ENCODING 54
SWIDTH 42 0
DWIDTH 8 0
BBX 6 10 1 -1
BITMAP
18
60
40
80
B8
C4
84
84
84
78
ENDCHAR
STARTCHAR <unknown>
ENCODING 55
SWIDTH 42 0
DWIDTH 8 0
BBX 6 10 1 -1
BITMAP
FC
84
04
08
08
10
10
20
20
20
ENDCHAR
STARTCHAR <unknown>
ENCODING 56
SWIDTH 42 0
DWIDTH 8 0
BBX 6 10 1 -1
BITMAP
78
84
84
84
78
84
84
84
84
78
ENDCHAR
STARTCHAR <unknown>
ENCODING 57
SWIDTH 42 0
DWIDTH 8 0
BBX 6 10 1 -1
BITMAP
78
8C
84
84
8C
74
04
08
18
60
ENDCHAR
STARTCHAR <unknown>
ENCODING 58
SWIDTH 42 0
DWIDTH 8 0
BBX 2 7 3 -1
BITMAP
C0
C0
00
00
00
C0
C0
ENDCHAR
STARTCHAR <unknown>
ENCODING 59
SWIDTH 42 0
DWIDTH 8 0
BBX 3 10 2 -4
BITMAP
60
60
00
00
00
60
60
20
40
80
ENDCHAR
STARTCHAR <unknown>
ENCODING 60
SWIDTH 42 0
DWIDTH 8 0
BBX 5 9 1 1
BITMAP
08
10
20
40
80
40
20
10
08
ENDCHAR
STARTCHAR <unknown>
ENCODING 61
SWIDTH 42 0
DWIDTH 8 0
BBX 6 4 1 2
BITMAP
FC
00
00
FC
ENDCHAR
STARTCHAR <unknown>
ENCODING 62
SWIDTH 42 0
DWIDTH 8 0
BBX 5 9 2 1
BITMAP
80
40
20
10
08
10
20
40
80
ENDCHAR
STARTCHAR <unknown>
ENCODING 63
SWIDTH 42 0
DWIDTH 8 0
BBX 6 10 1 -1
BITMAP
78
84
84
04
08
10
30
00
00
30
ENDCHAR
STARTCHAR <unknown>
ENCODING 64
SWIDTH 42 0
DWIDTH 8 0
BBX 6 10 1 -1
BITMAP
30
48
84
9C
A4
A4
98
80
44
38
ENDCHAR
STARTCHAR <unknown>
ENCODING 65
SWIDTH 42 0
DWIDTH 8 0
BBX 8 10 0 -1
BITMAP
18
08
18
14
14
22
22
3E
41
E3
ENDCHAR
STARTCHAR <unknown>
ENCODING 66
SWIDTH 42 0
DWIDTH 8 0
BBX 7 10 1 -1
BITMAP
F8
44
44
44
78
44
42
42
42
FC
ENDCHAR
STARTCHAR <unknown>
ENCODING 67
SWIDTH 42 0
DWIDTH 8 0
BBX 6 10 1 -1
BITMAP
34
4C
84
80
80
80
80
84
48
30
ENDCHAR
STARTCHAR <unknown>
ENCODING 68
SWIDTH 42 0
DWIDTH 8 0
BBX 7 10 1 -1
BITMAP
F8
44
42
42
42
42
42
42
44
F8
ENDCHAR
STARTCHAR <unknown>
ENCODING 69
SWIDTH 42 0
DWIDTH 8 0
BBX 7 10 1 -1
BITMAP
FE
42
40
40
78
40
40
40
42
FE
ENDCHAR
STARTCHAR <unknown>
ENCODING 70
SWIDTH 42 0
DWIDTH 8 0
BBX 7 10 1 -1
BITMAP
FE
42
40
48
78
48
40
40
40
F0
ENDCHAR
STARTCHAR <unknown>
ENCODING 71
SWIDTH 42 0
DWIDTH 8 0
BBX 7 10 1 -1
BITMAP
34
4C
84
80
80
8E
84
84
44
38
ENDCHAR
STARTCHAR <unknown>
ENCODING 72
SWIDTH 42 0
DWIDTH 8 0
BBX 7 10 1 -1
BITMAP
EE
44
44
44
7C
44
44
44
44
EE
ENDCHAR
STARTCHAR <unknown>
ENCODING 73
SWIDTH 42 0
DWIDTH 8 0
BBX 5 10 2 -1
BITMAP
F8
20
20
20
20
20
20
20
20
F8
ENDCHAR
STARTCHAR <unknown>
ENCODING 74
SWIDTH 42 0
DWIDTH 8 0
BBX 6 10 1 -1
BITMAP
3C
08
08
08
08
08
88
88
88
70
ENDCHAR
STARTCHAR <unknown>
ENCODING 75
SWIDTH 42 0
DWIDTH 8 0
BBX 7 10 1 -1
BITMAP
EE
44
48
50
70
50
48
48
44
EE
ENDCHAR
STARTCHAR <unknown>
ENCODING 76
SWIDTH 42 0
DWIDTH 8 0
BBX 7 10 1 -1
BITMAP
E0
40
40
40
40
40
40
42
42
FE
ENDCHAR
STARTCHAR <unknown>
ENCODING 77
SWIDTH 42 0
DWIDTH 8 0
BBX 8 10 0 -1
BITMAP
C3
42
66
66
5A
5A
42
42
42
E7
ENDCHAR
STARTCHAR <unknown>
ENCODING 78
SWIDTH 42 0
DWIDTH 8 0
BBX 8 10 0 -1
BITMAP
C7
62
62
52
52
4A
4A
46
46
E2
ENDCHAR
STARTCHAR <unknown>
ENCODING 79
SWIDTH 42 0
DWIDTH 8 0
BBX 6 10 1 -1
BITMAP
38
4C
84
84
84
84
84
84
C8
70
ENDCHAR
STARTCHAR <unknown>
ENCODING 80
SWIDTH 42 0
DWIDTH 8 0
BBX 7 10 1 -1
BITMAP
FC
42
42
42
42
7C
40
40
40
E0
ENDCHAR
STARTCHAR <unknown>
ENCODING 81
SWIDTH 42 0
DWIDTH 8 0
BBX 7 12 1 -3
BITMAP
38
4C
84
84
84
84
84
84
E8
78
D2
0C
ENDCHAR
STARTCHAR <unknown>
ENCODING 82
SWIDTH 42 0
DWIDTH 8 0
BBX 7 10 1 -1
BITMAP
F8
44
44
44
78
50
48
48
44
E6
ENDCHAR
STARTCHAR <unknown>
ENCODING 83
SWIDTH 42 0
DWIDTH 8 0
BBX 6 10 1 -1
BITMAP
74
8C
84
40
30
08
04
84
C4
B8
ENDCHAR
STARTCHAR <unknown>
ENCODING 84
SWIDTH 42 0
DWIDTH 8 0
BBX 7 10 1 -1
BITMAP
FE
92
92
10
10
10
10
10
10
7C
ENDCHAR
STARTCHAR <unknown>
ENCODING 85
SWIDTH 42 0
DWIDTH 8 0
BBX 8 10 0 -1
BITMAP
E7
42
42
42
42
42
42
42
42
3C
ENDCHAR
STARTCHAR <unknown>
ENCODING 86
SWIDTH 42 0
DWIDTH 8 0
BBX 8 10 0 -1
BITMAP
E7
42
42
42
24
24
24
18
18
18
ENDCHAR
STARTCHAR <unknown>
ENCODING 87
SWIDTH 42 0
DWIDTH 8 0
BBX 8 10 0 -1
BITMAP
E3
41
41
49
49
55
36
22
22
22
ENDCHAR
STARTCHAR <unknown>
ENCODING 88
SWIDTH 42 0
DWIDTH 8 0
BBX 8 10 0 -1
BITMAP
E7
42
24
24
18
18
24
24
42
E7
ENDCHAR
STARTCHAR <unknown>
ENCODING 89
SWIDTH 42 0
DWIDTH 8 0
BBX 7 10 1 -1
BITMAP
C6
82
44
44
28
10
10
10
10
7C
ENDCHAR
STARTCHAR <unknown>
ENCODING 90
SWIDTH 42 0
DWIDTH 8 0
BBX 6 10 1 -1
BITMAP
FC
84
04
08
10
20
40
84
84
FC
ENDCHAR
STARTCHAR <unknown>
ENCODING 91
SWIDTH 42 0
DWIDTH 8 0
BBX 4 13 2 -3
BITMAP
F0
80
80
80
80
80
80
80
80
80
80
80
F0
ENDCHAR
STARTCHAR <unknown>
ENCODING 92
SWIDTH 42 0
DWIDTH 8 0
BBX 7 12 1 -2
BITMAP
80
40
40
20
20
10
10
08
08
04
04
02
ENDCHAR
STARTCHAR <unknown>
ENCODING 93
SWIDTH 42 0
DWIDTH 8 0
BBX 4 13 2 -3
BITMAP
F0
10
10
10
10
10
10
10
10
10
10
10
F0
ENDCHAR
STARTCHAR <unknown>
ENCODING 94
SWIDTH 42 0
DWIDTH 8 0
BBX 7 4 1 2
BITMAP
10
28
44
82
ENDCHAR
STARTCHAR <unknown>
ENCODING 95
SWIDTH 42 0
DWIDTH 8 0
BBX 7 1 1 -2
BITMAP
FE
ENDCHAR
STARTCHAR <unknown>
ENCODING 96
SWIDTH 42 0
DWIDTH 8 0
BBX 4 4 2 5
BITMAP
80
40
20
10
ENDCHAR
STARTCHAR <unknown>
ENCODING 97
SWIDTH 42 0
DWIDTH 8 0
BBX 7 7 1 -1
BITMAP
78
04
04
7C
84
8C
76
ENDCHAR
STARTCHAR <unknown>
ENCODING 98
SWIDTH 42 0
DWIDTH 8 0
BBX 7 10 1 -1
BITMAP
C0
40
40
58
64
42
42
42
64
58
ENDCHAR
STARTCHAR <unknown>
ENCODING 99
SWIDTH 42 0
DWIDTH 8 0
BBX 6 7 1 -1
BITMAP
34
4C
84
80
80
44
38
ENDCHAR
STARTCHAR <unknown>
ENCODING 100
SWIDTH 42 0
DWIDTH 8 0
BBX 7 10 1 -1
BITMAP
0C
04
04
34
4C
84
84
84
4C
36
ENDCHAR
STARTCHAR <unknown>
ENCODING 101
SWIDTH 42 0
DWIDTH 8 0
BBX 6 7 1 -1
BITMAP
38
44
84
FC
80
44
38
ENDCHAR
STARTCHAR <unknown>
ENCODING 102
SWIDTH 42 0
DWIDTH 8 0
BBX 7 10 1 -1
BITMAP
1C
22
20
20
F8
20
20
20
20
F8
ENDCHAR
STARTCHAR <unknown>
ENCODING 103
SWIDTH 42 0
DWIDTH 8 0
BBX 7 10 1 -4
BITMAP
36
4C
84
84
84
4C
34
04
84
78
ENDCHAR
STARTCHAR <unknown>
ENCODING 104
SWIDTH 42 0
DWIDTH 8 0
BBX 7 10 1 -1
BITMAP
C0
40
40
58
64
44
44
44
44
EE
ENDCHAR
STARTCHAR <unknown>
ENCODING 105
SWIDTH 42 0
DWIDTH 8 0
BBX 5 10 2 -1
BITMAP
20
20
00
E0
20
20
20
20
20
F8
ENDCHAR
STARTCHAR <unknown>
ENCODING 106
SWIDTH 42 0
DWIDTH 8 0
BBX 5 13 1 -4
BITMAP
08
08
00
78
08
08
08
08
08
08
08
88
70
ENDCHAR
STARTCHAR <unknown>
ENCODING 107
SWIDTH 42 0
DWIDTH 8 0
BBX 7 10 1 -1
BITMAP
C0
40
40
4C
48
50
70
48
44
CE
ENDCHAR
STARTCHAR <unknown>
ENCODING 108
SWIDTH 42 0
DWIDTH 8 0
BBX 5 10 2 -1
BITMAP
E0
20
20
20
20
20
20
20
20
F8
ENDCHAR
STARTCHAR <unknown>
ENCODING 109
SWIDTH 42 0
DWIDTH 8 0
BBX 8 7 0 -1
BITMAP
D2
6D
49
49
49
49
49
ENDCHAR
STARTCHAR <unknown>
ENCODING 110
SWIDTH 42 0
DWIDTH 8 0
BBX 7 7 1 -1
BITMAP
D8
64
44
44
44
44
EE
ENDCHAR
STARTCHAR <unknown>
ENCODING 111
SWIDTH 42 0
DWIDTH 8 0
BBX 7 7 1 -1
BITMAP
38
44
82
82
82
44
38
ENDCHAR
STARTCHAR <unknown>
ENCODING 112
SWIDTH 42 0
DWIDTH 8 0
BBX 7 10 1 -4
BITMAP
D8
64
42
42
42
64
58
40
40
E0
ENDCHAR
STARTCHAR <unknown>
ENCODING 113
SWIDTH 42 0
DWIDTH 8 0
BBX 7 10 1 -4
BITMAP
36
4C
84
84
84
4C
34
04
04
0E
ENDCHAR
STARTCHAR <unknown>
ENCODING 114
SWIDTH 42 0
DWIDTH 8 0
BBX 7 7 1 -1
BITMAP
DC
62
40
40
40
40
F0
ENDCHAR
STARTCHAR <unknown>
ENCODING 115
SWIDTH 42 0
DWIDTH 8 0
BBX 6 7 1 -1
BITMAP
7C
84
80
78
04
84
F8
ENDCHAR
STARTCHAR <unknown>
ENCODING 116
SWIDTH 42 0
DWIDTH 8 0
BBX 6 10 1 -1
BITMAP
20
20
20
F8
20
20
20
20
24
18
ENDCHAR
STARTCHAR <unknown>
ENCODING 117
SWIDTH 42 0
DWIDTH 8 0
BBX 7 7 1 -1
BITMAP
CC
44
44
44
44
4C
36
ENDCHAR
STARTCHAR <unknown>
ENCODING 118
SWIDTH 42 0
DWIDTH 8 0
BBX 7 7 1 -1
BITMAP
EE
44
44
28
28
10
10
ENDCHAR
STARTCHAR <unknown>
ENCODING 119
SWIDTH 42 0
DWIDTH 8 0
BBX 8 7 0 -1
BITMAP
C3
41
49
5D
36
22
22
ENDCHAR
STARTCHAR <unknown>
ENCODING 120
SWIDTH 42 0
DWIDTH 8 0
BBX 7 7 1 -1
BITMAP
EE
44
28
10
28
44
EE
ENDCHAR
STARTCHAR <unknown>
ENCODING 121
SWIDTH 42 0
DWIDTH 8 0
BBX 7 9 1 -3
BITMAP
EE
44
44
28
28
10
30
20
F0
ENDCHAR
STARTCHAR <unknown>
ENCODING 122
SWIDTH 42 0
DWIDTH 8 0
BBX 6 7 1 -1
BITMAP
FC
88
10
20
40
84
FC
ENDCHAR
STARTCHAR <unknown>
ENCODING 123
SWIDTH 42 0
DWIDTH 8 0
BBX 6 13 1 -3
BITMAP
1C
20
20
20
20
20
C0
20
20
20
20
20
1C
ENDCHAR
STARTCHAR <unknown>
ENCODING 124
SWIDTH 42 0
DWIDTH 8 0
BBX 1 13 3 -3
BITMAP
80
80
80
80
80
80
00
80
80
80
80
80
80
ENDCHAR
STARTCHAR <unknown>
ENCODING 125
SWIDTH 42 0
DWIDTH 8 0
BBX 6 13 1 -3
BITMAP
E0
10
10
10
10
10
0C
10
10
10
10
10
E0
ENDCHAR
STARTCHAR <unknown>
ENCODING 126
SWIDTH 42 0
DWIDTH 8 0
BBX 7 3 1 2
BITMAP
60
92
0C
ENDCHAR
STARTCHAR <unknown>
ENCODING 127
SWIDTH 42 0
DWIDTH 8 0
BBX 0 0 8 11
BITMAP
ENDCHAR
STARTCHAR <unknown>
ENCODING 128
SWIDTH 42 0
DWIDTH 8 0
BBX 0 0 8 11
BITMAP
ENDCHAR
STARTCHAR <unknown>
ENCODING 129
SWIDTH 42 0
DWIDTH 8 0
BBX 0 0 8 11
BITMAP
ENDCHAR
STARTCHAR <unknown>
ENCODING 130
SWIDTH 42 0
DWIDTH 8 0
BBX 0 0 8 11
BITMAP
ENDCHAR
STARTCHAR <unknown>
ENCODING 131
SWIDTH 42 0
DWIDTH 8 0
BBX 0 0 8 11
BITMAP
ENDCHAR
STARTCHAR <unknown>
ENCODING 132
SWIDTH 42 0
DWIDTH 8 0
BBX 0 0 8 11
BITMAP
ENDCHAR
STARTCHAR <unknown>
ENCODING 133
SWIDTH 42 0
DWIDTH 8 0
BBX 0 0 8 11
BITMAP
ENDCHAR
STARTCHAR <unknown>
ENCODING 134
SWIDTH 42 0
DWIDTH 8 0
BBX 0 0 8 11
BITMAP
ENDCHAR
STARTCHAR <unknown>
ENCODING 135
SWIDTH 42 0
DWIDTH 8 0
BBX 0 0 8 11
BITMAP
ENDCHAR
STARTCHAR <unknown>
ENCODING 136
SWIDTH 42 0
DWIDTH 8 0
BBX 0 0 8 11
BITMAP
ENDCHAR
STARTCHAR <unknown>
ENCODING 137
SWIDTH 42 0
DWIDTH 8 0
BBX 0 0 8 11
BITMAP
ENDCHAR
STARTCHAR <unknown>
ENCODING 138
SWIDTH 42 0
DWIDTH 8 0
BBX 0 0 8 11
BITMAP
ENDCHAR
STARTCHAR <unknown>
ENCODING 139
SWIDTH 42 0
DWIDTH 8 0
BBX 0 0 8 11
BITMAP
ENDCHAR
STARTCHAR <unknown>
ENCODING 140
SWIDTH 42 0
DWIDTH 8 0
BBX 0 0 8 11
BITMAP
ENDCHAR
STARTCHAR <unknown>
ENCODING 141
SWIDTH 42 0
DWIDTH 8 0
BBX 0 0 8 11
BITMAP
ENDCHAR
STARTCHAR <unknown>
ENCODING 142
SWIDTH 42 0
DWIDTH 8 0
BBX 0 0 8 11
BITMAP
ENDCHAR
STARTCHAR <unknown>
ENCODING 143
SWIDTH 42 0
DWIDTH 8 0
BBX 0 0 8 11
BITMAP
ENDCHAR
STARTCHAR <unknown>
ENCODING 144
SWIDTH 42 0
DWIDTH 8 0
BBX 5 9 3 -5
BITMAP
F8
80
80
80
80
80
80
80
80
ENDCHAR
STARTCHAR <unknown>
ENCODING 145
SWIDTH 42 0
DWIDTH 8 0
BBX 8 9 0 -5
BITMAP
FF
10
10
10
10
10
10
10
10
ENDCHAR
STARTCHAR <unknown>
ENCODING 146
SWIDTH 42 0
DWIDTH 8 0
BBX 4 9 0 -5
BITMAP
F0
10
10
10
10
10
10
10
10
ENDCHAR
STARTCHAR <unknown>
ENCODING 147
SWIDTH 42 0
DWIDTH 8 0
BBX 5 16 3 -5
BITMAP
80
80
80
80
80
80
80
F8
80
80
80
80
80
80
80
80
ENDCHAR
STARTCHAR <unknown>
ENCODING 148
SWIDTH 42 0
DWIDTH 8 0
BBX 8 16 0 -5
BITMAP
10
10
10
10
10
10
10
FF
10
10
10
10
10
10
10
10
ENDCHAR
STARTCHAR <unknown>
ENCODING 149
SWIDTH 42 0
DWIDTH 8 0
BBX 4 16 0 -5
BITMAP
10
10
10
10
10
10
10
F0
10
10
10
10
10
10
10
10
ENDCHAR
STARTCHAR <unknown>
ENCODING 150
SWIDTH 42 0
DWIDTH 8 0
BBX 5 8 3 3
BITMAP
80
80
80
80
80
80
80
F8
ENDCHAR
STARTCHAR <unknown>
ENCODING 151
SWIDTH 42 0
DWIDTH 8 0
BBX 8 8 0 3
BITMAP
10
10
10
10
10
10
10
FF
ENDCHAR
STARTCHAR <unknown>
ENCODING 152
SWIDTH 42 0
DWIDTH 8 0
BBX 4 8 0 3
BITMAP
10
10
10
10
10
10
10
F0
ENDCHAR
STARTCHAR <unknown>
ENCODING 153
SWIDTH 42 0
DWIDTH 8 0
BBX 1 16 3 -5
BITMAP
80
80
80
80
80
80
80
80
80
80
80
80
80
80
80
80
ENDCHAR
STARTCHAR <unknown>
ENCODING 154
SWIDTH 42 0
DWIDTH 8 0
BBX 8 1 0 3
BITMAP
FF
ENDCHAR
STARTCHAR <unknown>
ENCODING 155
SWIDTH 42 0
DWIDTH 8 0
BBX 0 0 8 11
BITMAP
ENDCHAR
STARTCHAR <unknown>
ENCODING 156
SWIDTH 42 0
DWIDTH 8 0
BBX 0 0 8 11
BITMAP
ENDCHAR
STARTCHAR <unknown>
ENCODING 157
SWIDTH 42 0
DWIDTH 8 0
BBX 0 0 8 11
BITMAP
ENDCHAR
STARTCHAR <unknown>
ENCODING 158
SWIDTH 42 0
DWIDTH 8 0
BBX 0 0 8 11
BITMAP
ENDCHAR
STARTCHAR <unknown>
ENCODING 159
SWIDTH 42 0
DWIDTH 8 0
BBX 0 0 8 11
BITMAP
ENDCHAR
STARTCHAR <unknown>
ENCODING 160
SWIDTH 42 0
DWIDTH 8 0
BBX 8 15 0 -5
BITMAP
3C
24
24
24
24
24
24
24
24
3C
42
A6
A2
A2
47
ENDCHAR
STARTCHAR <unknown>
ENCODING 161
SWIDTH 42 0
DWIDTH 8 0
BBX 6 2 1 8
BITMAP
CC
CC
ENDCHAR
STARTCHAR <unknown>
ENCODING 162
SWIDTH 42 0
DWIDTH 8 0
BBX 4 1 2 8
BITMAP
F0
ENDCHAR
STARTCHAR <unknown>
ENCODING 163
SWIDTH 42 0
DWIDTH 8 0
BBX 8 15 0 -5
BITMAP
3C
24
24
24
24
24
24
24
24
3C
42
A5
A1
A2
47
ENDCHAR
STARTCHAR <unknown>
ENCODING 164
SWIDTH 42 0
DWIDTH 8 0
BBX 6 9 1 0
BITMAP
18
20
40
80
40
20
18
00
FC
ENDCHAR
STARTCHAR <unknown>
ENCODING 165
SWIDTH 42 0
DWIDTH 8 0
BBX 8 15 0 -5
BITMAP
3C
24
24
24
24
24
24
24
24
3C
46
A1
A2
A1
46
ENDCHAR
STARTCHAR <unknown>
ENCODING 166
SWIDTH 42 0
DWIDTH 8 0
BBX 6 9 1 0
BITMAP
60
10
08
04
08
10
60
00
FC
ENDCHAR
STARTCHAR <unknown>
ENCODING 167
SWIDTH 42 0
DWIDTH 8 0
BBX 8 15 0 -5
BITMAP
3C
24
24
24
24
24
24
24
24
3C
42
AA
AF
A2
42
ENDCHAR
STARTCHAR <unknown>
ENCODING 168
SWIDTH 42 0
DWIDTH 8 0
BBX 6 8 1 1
BITMAP
04
08
FC
10
20
FC
40
80
ENDCHAR
STARTCHAR <unknown>
ENCODING 169
SWIDTH 42 0
DWIDTH 8 0
BBX 7 4 1 2
BITMAP
82
44
28
10
ENDCHAR
STARTCHAR <unknown>
ENCODING 170
SWIDTH 42 0
DWIDTH 8 0
BBX 8 15 0 -5
BITMAP
3C
24
24
24
24
24
24
24
24
3C
47
A4
A6
A1
46
ENDCHAR
STARTCHAR <unknown>
ENCODING 171
SWIDTH 42 0
DWIDTH 8 0
BBX 7 7 1 0
BITMAP
82
44
28
10
28
44
82
ENDCHAR
STARTCHAR <unknown>
ENCODING 172
SWIDTH 42 0
DWIDTH 8 0
BBX 6 8 1 -4
BITMAP
FC
00
00
30
30
10
20
40
ENDCHAR
STARTCHAR <unknown>
ENCODING 173
SWIDTH 42 0
DWIDTH 8 0
BBX 7 10 1 -1
BITMAP
FE
82
92
82
FE
82
92
92
82
FE
ENDCHAR
STARTCHAR <unknown>
ENCODING 174
SWIDTH 42 0
DWIDTH 8 0
BBX 6 8 1 2
BITMAP
CC
CC
00
00
00
00
30
30
ENDCHAR
STARTCHAR <unknown>
ENCODING 175
SWIDTH 42 0
DWIDTH 8 0
BBX 7 12 1 -2
BITMAP
02
04
04
08
08
10
FE
20
20
40
40
80
ENDCHAR
STARTCHAR <unknown>
ENCODING 176
SWIDTH 42 0
DWIDTH 8 0
BBX 7 7 1 2
BITMAP
72
8C
00
10
28
44
82
ENDCHAR
STARTCHAR <unknown>
ENCODING 177
SWIDTH 42 0
DWIDTH 8 0
BBX 1 10 4 -1
BITMAP
80
00
00
80
80
80
80
80
80
80
ENDCHAR
STARTCHAR <unknown>
ENCODING 178
SWIDTH 42 0
DWIDTH 8 0
BBX 8 15 0 -5
BITMAP
3C
24
24
24
24
24
24
24
24
3C
43
A4
A6
A5
42
ENDCHAR
STARTCHAR <unknown>
ENCODING 179
SWIDTH 42 0
DWIDTH 8 0
BBX 8 10 0 -1
BITMAP
18
24
20
20
20
78
20
20
41
FE
ENDCHAR
STARTCHAR <unknown>
ENCODING 180
SWIDTH 42 0
DWIDTH 8 0
BBX 7 9 1 -1
BITMAP
EE
44
44
28
FE
10
FE
10
7C
ENDCHAR
STARTCHAR <unknown>
ENCODING 181
SWIDTH 42 0
DWIDTH 8 0
BBX 8 15 0 -5
BITMAP
3C
24
24
24
24
24
24
24
24
3C
47
A1
A2
A4
44
ENDCHAR
STARTCHAR <unknown>
ENCODING 182
SWIDTH 42 0
DWIDTH 8 0
BBX 6 3 1 1
BITMAP
FC
04
04
ENDCHAR
STARTCHAR <unknown>
ENCODING 183
SWIDTH 42 0
DWIDTH 8 0
BBX 8 15 0 -5
BITMAP
3C
24
24
24
24
24
24
24
24
3C
42
A5
A2
A5
42
ENDCHAR
STARTCHAR <unknown>
ENCODING 184
SWIDTH 42 0
DWIDTH 8 0
BBX 8 15 0 -5
BITMAP
3C
24
24
24
24
24
24
24
24
3C
42
A5
A7
A1
46
ENDCHAR
STARTCHAR <unknown>
ENCODING 185
SWIDTH 42 0
DWIDTH 8 0
BBX 7 7 1 2
BITMAP
72
8C
00
82
44
28
10
ENDCHAR
STARTCHAR <unknown>
ENCODING 186
SWIDTH 42 0
DWIDTH 8 0
BBX 8 15 0 -5
BITMAP
3C
24
24
24
24
24
24
24
24
3C
42
C5
45
45
E2
ENDCHAR
STARTCHAR <unknown>
ENCODING 187
SWIDTH 42 0
DWIDTH 8 0
BBX 7 10 1 -1
BITMAP
FE
82
82
92
AA
AA
92
82
82
FE
ENDCHAR
STARTCHAR <unknown>
ENCODING 188
SWIDTH 42 0
DWIDTH 8 0
BBX 7 10 1 -1
BITMAP
FE
C2
C2
A2
92
92
8A
86
86
FE
ENDCHAR
STARTCHAR <unknown>
ENCODING 189
SWIDTH 42 0
DWIDTH 8 0
BBX 7 5 1 1
BITMAP
FE
00
FE
00
FE
ENDCHAR
STARTCHAR <unknown>
ENCODING 190
SWIDTH 42 0
DWIDTH 8 0
BBX 4 10 2 -1
BITMAP
F0
90
90
90
90
90
90
90
90
F0
ENDCHAR
STARTCHAR <unknown>
ENCODING 191
SWIDTH 42 0
DWIDTH 8 0
BBX 6 10 1 -1
BITMAP
30
00
00
20
20
40
80
84
84
78
ENDCHAR
STARTCHAR <unknown>
ENCODING 192
SWIDTH 42 0
DWIDTH 8 0
BBX 8 15 0 -5
BITMAP
3C
24
24
24
24
24
24
24
24
3C
42
C6
42
42
E7
ENDCHAR
STARTCHAR <unknown>
ENCODING 193
SWIDTH 42 0
DWIDTH 8 0
BBX 7 6 1 -1
BITMAP
76
88
88
88
88
76
ENDCHAR
STARTCHAR <unknown>
ENCODING 194
SWIDTH 42 0
DWIDTH 8 0
BBX 7 7 1 0
BITMAP
10
10
10
10
10
10
FE
ENDCHAR
STARTCHAR <unknown>
ENCODING 195
SWIDTH 42 0
DWIDTH 8 0
BBX 6 8 1 -1
BITMAP
78
84
84
84
84
84
84
84
ENDCHAR
STARTCHAR <unknown>
ENCODING 196
SWIDTH 42 0
DWIDTH 8 0
BBX 4 11 3 -1
BITMAP
80
80
80
80
80
80
80
80
80
80
F0
ENDCHAR
STARTCHAR <unknown>
ENCODING 197
SWIDTH 42 0
DWIDTH 8 0
BBX 6 7 1 1
BITMAP
38
40
80
F0
80
40
3C
ENDCHAR
STARTCHAR <unknown>
ENCODING 198
SWIDTH 42 0
DWIDTH 8 0
BBX 8 15 0 -5
BITMAP
3C
24
24
24
24
24
24
24
24
3C
42
C5
41
42
E7
ENDCHAR
STARTCHAR <unknown>
ENCODING 199
SWIDTH 42 0
DWIDTH 8 0
BBX 7 8 1 0
BITMAP
FE
82
44
44
28
28
10
10
ENDCHAR
STARTCHAR <unknown>
ENCODING 200
SWIDTH 42 0
DWIDTH 8 0
BBX 7 8 1 -1
BITMAP
10
10
28
28
44
44
82
FE
ENDCHAR
STARTCHAR <unknown>
ENCODING 201
SWIDTH 42 0
DWIDTH 8 0
BBX 5 7 2 -1
BITMAP
C0
40
40
40
40
48
30
ENDCHAR
STARTCHAR <unknown>
ENCODING 202
SWIDTH 42 0
DWIDTH 8 0
BBX 4 4 2 2
BITMAP
60
90
90
60
ENDCHAR
STARTCHAR <unknown>
ENCODING 203
SWIDTH 42 0
DWIDTH 8 0
BBX 8 15 0 -5
BITMAP
3C
24
24
24
24
24
24
24
24
3C
46
C1
42
41
E6
ENDCHAR
STARTCHAR <unknown>
ENCODING 204
SWIDTH 42 0
DWIDTH 8 0
BBX 7 10 1 -1
BITMAP
FE
82
82
82
82
82
82
82
82
FE
ENDCHAR
STARTCHAR <unknown>
ENCODING 205
SWIDTH 42 0
DWIDTH 8 0
BBX 1 11 3 -1
BITMAP
80
80
80
80
80
80
80
80
80
80
80
ENDCHAR
STARTCHAR <unknown>
ENCODING 206
SWIDTH 42 0
DWIDTH 8 0
BBX 7 7 1 0
BITMAP
FE
10
10
10
10
10
10
ENDCHAR
STARTCHAR <unknown>
ENCODING 207
SWIDTH 42 0
DWIDTH 8 0
BBX 6 6 1 0
BITMAP
78
84
84
84
84
78
ENDCHAR
STARTCHAR <unknown>
ENCODING 208
SWIDTH 42 0
DWIDTH 8 0
BBX 8 15 0 -5
BITMAP
3C
24
24
24
24
24
24
24
24
3C
42
CA
4F
42
E2
ENDCHAR
STARTCHAR <unknown>
ENCODING 209
SWIDTH 42 0
DWIDTH 8 0
BBX 8 15 0 -5
BITMAP
3C
24
24
24
24
24
24
24
24
3C
47
C4
46
41
E6
ENDCHAR
STARTCHAR <unknown>
ENCODING 210
SWIDTH 42 0
DWIDTH 8 0
BBX 6 9 1 -3
BITMAP
38
44
84
84
C4
B8
80
80
80
ENDCHAR
STARTCHAR <unknown>
ENCODING 211
SWIDTH 42 0
DWIDTH 8 0
BBX 4 11 3 -1
BITMAP
F0
80
80
80
80
80
80
80
80
80
80
ENDCHAR
STARTCHAR <unknown>
ENCODING 212
SWIDTH 42 0
DWIDTH 8 0
BBX 8 15 0 -5
BITMAP
3C
24
24
24
24
24
24
24
24
3C
43
C4
46
45
E2
ENDCHAR
STARTCHAR <unknown>
ENCODING 213
SWIDTH 42 0
DWIDTH 8 0
BBX 5 10 2 -1
BITMAP
20
20
20
20
20
20
20
A8
70
20
ENDCHAR
STARTCHAR <unknown>
ENCODING 214
SWIDTH 42 0
DWIDTH 8 0
BBX 6 7 1 0
BITMAP
84
84
84
84
84
84
78
ENDCHAR
STARTCHAR <unknown>
ENCODING 215
SWIDTH 42 0
DWIDTH 8 0
BBX 7 6 1 -1
BITMAP
42
92
92
92
92
6C
ENDCHAR
STARTCHAR <unknown>
ENCODING 216
SWIDTH 42 0
DWIDTH 8 0
BBX 6 6 1 1
BITMAP
F8
04
04
04
04
F8
ENDCHAR
STARTCHAR <unknown>
ENCODING 217
SWIDTH 42 0
DWIDTH 8 0
BBX 5 10 2 -1
BITMAP
20
70
A8
20
20
20
20
20
20
20
ENDCHAR
STARTCHAR <unknown>
ENCODING 218
SWIDTH 42 0
DWIDTH 8 0
BBX 6 6 1 1
BITMAP
7C
80
80
80
80
7C
ENDCHAR
STARTCHAR <unknown>
ENCODING 219
SWIDTH 42 0
DWIDTH 8 0
BBX 6 7 1 0
BITMAP
80
80
80
FC
80
80
80
ENDCHAR
STARTCHAR <unknown>
ENCODING 220
SWIDTH 42 0
DWIDTH 8 0
BBX 7 12 1 -2
BITMAP
80
40
40
20
20
10
FE
08
08
04
04
02
ENDCHAR
STARTCHAR <unknown>
ENCODING 221
SWIDTH 42 0
DWIDTH 8 0
BBX 6 7 1 0
BITMAP
04
04
04
FC
04
04
04
ENDCHAR
STARTCHAR <unknown>
ENCODING 222
SWIDTH 42 0
DWIDTH 8 0
BBX 8 15 0 -5
BITMAP
3C
24
24
24
24
24
24
24
24
3C
47
C1
42
44
E4
ENDCHAR
STARTCHAR <unknown>
ENCODING 223
SWIDTH 42 0
DWIDTH 8 0
BBX 7 7 1 0
BITMAP
10
10
00
FE
00
10
10
ENDCHAR
STARTCHAR <unknown>
ENCODING 224
SWIDTH 42 0
DWIDTH 8 0
BBX 7 7 1 0
BITMAP
FE
10
10
10
10
10
FE
ENDCHAR
STARTCHAR <unknown>
ENCODING 225
SWIDTH 42 0
DWIDTH 8 0
BBX 7 7 1 0
BITMAP
38
44
82
FE
82
44
38
ENDCHAR
STARTCHAR <unknown>
ENCODING 226
SWIDTH 42 0
DWIDTH 8 0
BBX 7 8 1 0
BITMAP
10
10
38
54
54
38
10
FE
ENDCHAR
STARTCHAR <unknown>
ENCODING 227
SWIDTH 42 0
DWIDTH 8 0
BBX 5 8 2 -1
BITMAP
70
88
88
88
F8
88
88
88
ENDCHAR
STARTCHAR <unknown>
ENCODING 228
SWIDTH 42 0
DWIDTH 8 0
BBX 8 15 0 -5
BITMAP
3C
24
24
24
24
24
24
24
24
3C
42
C5
42
45
E2
ENDCHAR
STARTCHAR <unknown>
ENCODING 229
SWIDTH 42 0
DWIDTH 8 0
BBX 6 9 1 -1
BITMAP
38
40
80
F0
80
40
3C
00
FC
ENDCHAR
STARTCHAR <unknown>
ENCODING 230
SWIDTH 42 0
DWIDTH 8 0
BBX 7 10 1 -1
BITMAP
72
8C
00
FE
84
44
48
28
30
10
ENDCHAR
STARTCHAR <unknown>
ENCODING 231
SWIDTH 42 0
DWIDTH 8 0
BBX 7 11 1 -1
BITMAP
10
10
FE
92
54
54
38
38
10
10
10
ENDCHAR
STARTCHAR <unknown>
ENCODING 232
SWIDTH 42 0
DWIDTH 8 0
BBX 7 11 1 -1
BITMAP
10
10
10
38
38
54
54
92
FE
10
10
ENDCHAR
STARTCHAR <unknown>
ENCODING 233
SWIDTH 42 0
DWIDTH 8 0
BBX 5 9 2 -2
BITMAP
C0
40
40
40
40
48
30
00
F8
ENDCHAR
STARTCHAR <unknown>
ENCODING 234
SWIDTH 42 0
DWIDTH 8 0
BBX 4 7 2 2
BITMAP
90
90
00
60
90
90
60
ENDCHAR
STARTCHAR <unknown>
ENCODING 235
SWIDTH 42 0
DWIDTH 8 0
BBX 8 15 0 -5
BITMAP
3C
24
24
24
24
24
24
24
24
3C
42
C5
47
41
E6
ENDCHAR
STARTCHAR <unknown>
ENCODING 236
SWIDTH 42 0
DWIDTH 8 0
BBX 7 10 1 -1
BITMAP
FE
92
92
92
92
82
82
82
82
FE
ENDCHAR
STARTCHAR <unknown>
ENCODING 237
SWIDTH 42 0
DWIDTH 8 0
BBX 8 15 0 -5
BITMAP
3C
24
24
24
24
24
24
24
24
3C
42
A5
25
45
E2
ENDCHAR
STARTCHAR <unknown>
ENCODING 238
SWIDTH 42 0
DWIDTH 8 0
BBX 7 8 1 -1
BITMAP
FE
10
38
54
54
38
10
10
ENDCHAR
STARTCHAR <unknown>
ENCODING 239
SWIDTH 42 0
DWIDTH 8 0
BBX 6 9 1 0
BITMAP
48
48
00
78
84
84
84
84
78
ENDCHAR
STARTCHAR <unknown>
ENCODING 240
SWIDTH 42 0
DWIDTH 8 0
BBX 7 7 1 0
BITMAP
7C
92
D6
BA
AA
C6
7C
ENDCHAR
STARTCHAR <unknown>
ENCODING 241
SWIDTH 42 0
DWIDTH 8 0
BBX 0 0 8 11
BITMAP
ENDCHAR
STARTCHAR <unknown>
ENCODING 242
SWIDTH 42 0
DWIDTH 8 0
BBX 0 0 8 11
BITMAP
ENDCHAR
STARTCHAR <unknown>
ENCODING 243
SWIDTH 42 0
DWIDTH 8 0
BBX 0 0 8 11
BITMAP
ENDCHAR
STARTCHAR <unknown>
ENCODING 244
SWIDTH 42 0
DWIDTH 8 0
BBX 8 8 0 -1
BITMAP
80
7C
62
52
4A
46
3E
01
ENDCHAR
STARTCHAR <unknown>
ENCODING 245
SWIDTH 42 0
DWIDTH 8 0
BBX 6 14 1 -4
BITMAP
FC
FC
00
00
30
30
00
00
00
30
30
10
20
40
ENDCHAR
STARTCHAR <unknown>
ENCODING 246
SWIDTH 42 0
DWIDTH 8 0
BBX 7 12 1 -2
BITMAP
FE
FE
00
00
10
92
54
38
38
54
92
10
ENDCHAR
STARTCHAR <unknown>
ENCODING 247
SWIDTH 42 0
DWIDTH 8 0
BBX 7 11 1 -2
BITMAP
10
10
38
54
92
92
92
54
38
10
10
ENDCHAR
STARTCHAR <unknown>
ENCODING 248
SWIDTH 42 0
DWIDTH 8 0
BBX 0 0 8 11
BITMAP
ENDCHAR
STARTCHAR <unknown>
ENCODING 249
SWIDTH 42 0
DWIDTH 8 0
BBX 0 0 8 11
BITMAP
ENDCHAR
STARTCHAR <unknown>
ENCODING 250
SWIDTH 42 0
DWIDTH 8 0
BBX 5 8 2 -1
BITMAP
20
70
A8
A0
A0
A8
70
20
ENDCHAR
STARTCHAR <unknown>
ENCODING 251
SWIDTH 42 0
DWIDTH 8 0
BBX 8 5 0 1
BITMAP
20
40
FF
40
20
ENDCHAR
STARTCHAR <unknown>
ENCODING 252
SWIDTH 42 0
DWIDTH 8 0
BBX 7 9 1 -1
BITMAP
10
30
28
48
44
84
FE
00
FE
ENDCHAR
STARTCHAR <unknown>
ENCODING 253
SWIDTH 42 0
DWIDTH 8 0
BBX 8 5 0 1
BITMAP
04
02
FF
02
04
ENDCHAR
STARTCHAR <unknown>
ENCODING 254
SWIDTH 42 0
DWIDTH 8 0
BBX 7 7 1 0
BITMAP
10
28
44
82
44
28
10
ENDCHAR
STARTCHAR <unknown>
ENCODING 255
SWIDTH 42 0
DWIDTH 8 0
BBX 6 10 1 0
BITMAP
FC
FC
FC
FC
FC
FC
FC
FC
FC
FC
ENDCHAR
ENDFONT
